<svg xmlns="http://www.w3.org/2000/svg" xmlns:xlink="http://www.w3.org/1999/xlink" width="503.656" height="465.524" viewBox="0 0 503.656 465.524">
  <defs>
    <clipPath id="clip-path">
      <rect id="Rectangle_76473" data-name="Rectangle 76473" width="94.361" height="70.529" fill="#4b47f1"/>
    </clipPath>
    <clipPath id="clip-path-2">
      <rect id="Rectangle_76474" data-name="Rectangle 76474" width="86.957" height="74.818" fill="#4b47f1"/>
    </clipPath>
    <clipPath id="clip-path-3">
      <rect id="Rectangle_76477" data-name="Rectangle 76477" width="94.752" height="64.577" fill="#4b47f1"/>
    </clipPath>
    <clipPath id="clip-path-4">
      <rect id="Rectangle_76479" data-name="Rectangle 76479" width="71.093" height="71.093" fill="#4b47f1" stroke="#4b47f1" stroke-width="1"/>
    </clipPath>
    <clipPath id="clip-path-5">
      <rect id="Rectangle_77088" data-name="Rectangle 77088" width="88.617" height="65.132" fill="#4b47f1"/>
    </clipPath>
  </defs>
  <g id="Group_61234" data-name="Group 61234" transform="translate(-1016.692 -213)">
    <g id="Group_60254" data-name="Group 60254" transform="translate(1225.819 236.101)">
      <g id="Group_60253" data-name="Group 60253" transform="translate(0 0)" clip-path="url(#clip-path)">
        <path id="Path_26182" data-name="Path 26182" d="M117.1,276.674h7.476c.021-.44.057-.846.057-1.252q.006-8.139,0-16.277c0-1.594.421-2.016,1.992-2.017q6.88-.005,13.761,0c1.676,0,2.085.422,2.085,2.133v1.355c.735,0,1.371-.008,2.007,0,2.409.037,3.825,1.364,3.9,3.744.053,1.71.052,3.425-.005,5.134-.08,2.374-1.437,3.645-3.82,3.673-.64.007-1.279,0-2,0v3.547c.879,0,1.74,0,2.6,0,1.231.007,1.936.521,1.943,1.409s-.682,1.416-1.917,1.416q-23.6,0-47.193,0H64.366c-.291,0-.582.013-.872-.006a1.4,1.4,0,0,1-.063-2.8c.706-.058,1.42-.021,2.131-.021,2.22,0,4.441,0,6.749,0V254.2h1.2q6.589,0,13.179,0a1.258,1.258,0,0,0,1.122-2c-.49-.829-1.06-1.611-1.65-2.5-.3.216-.563.39-.813.576-1.317.982-2.293.634-2.684-.978-.41-1.691-.8-3.389-1.2-5.082-.073-.306-.177-.6-.262-.89-2.714.592-5.36,1.146-7.993,1.753a4.017,4.017,0,0,0-3.037,3.087c-.613,2.235-1.128,4.5-1.642,6.759-.886,3.9-1.709,7.808-2.625,11.7a4.44,4.44,0,0,0,.443,3.261c.444.821.993,1.584,1.463,2.391a1.317,1.317,0,0,1-.351,1.887,1.263,1.263,0,0,1-1.891-.254c-1.312-1.7-2.535-3.527-2.593-5.728a18.8,18.8,0,0,1,.684-4.373c1.061-4.881,2.161-9.754,3.268-14.626a19.347,19.347,0,0,1,.715-2.3A7.128,7.128,0,0,1,73.3,242.16c2.8-.6,5.574-1.332,8.353-2.034a1.514,1.514,0,0,1,2.072,1.261c.352,1.572.723,3.139,1.089,4.708.051.217.119.43.219.787.336-.231.623-.408.887-.615q2.633-2.058,5.258-4.127a1.47,1.47,0,0,1,2.237.026q2.666,2.095,5.341,4.178c.218.17.458.311.8.539.448-1.857.865-3.6,1.289-5.342a1.657,1.657,0,0,1,2.348-1.4c2.782.695,5.557,1.427,8.363,2.01a6.946,6.946,0,0,1,5.752,4.979c.826,2.809,1.441,5.681,2.1,8.537.773,3.36,1.432,6.748,2.258,10.095a7.155,7.155,0,0,1-.775,5.679c-.923,1.507-2.026,2.9-3.056,4.346-.181.254-.4.485-.723.883m-41.866-.019h34.355V257.083H75.238Zm37.231-.016a1.762,1.762,0,0,0,.447.026.847.847,0,0,0,.332-.183c2.13-2.08,4.25-4.192,5.418-6.987a5.082,5.082,0,0,0,.242-2.8c-.857-4.3-1.821-8.57-2.79-12.843-.455-2.008-.95-4.011-1.532-5.986a3.542,3.542,0,0,0-2.5-2.624c-2.868-.718-5.761-1.337-8.7-2.009-.095.3-.194.569-.261.844-.44,1.815-.848,3.639-1.315,5.447-.353,1.367-1.335,1.684-2.48.853-.3-.217-.6-.431-.924-.662-.23.333-.4.568-.558.808-.359.536-.737,1.061-1.066,1.615a1.274,1.274,0,0,0,1.105,2.062q6.732,0,13.464,0h1.114Zm15.016-.013h12.081V260H127.485ZM93.827,254.153a2.984,2.984,0,0,0-.01-.8,2.823,2.823,0,0,1,.559-2.71c.638-.84,1.175-1.758,1.807-2.719-1.233-.961-2.388-1.881-3.572-2.76a.723.723,0,0,0-.674.013c-1.182.882-2.336,1.8-3.5,2.71.908,2.093,3.341,3.523,2.127,6.265Zm48.735,16.211a12.756,12.756,0,0,0,2.212-.04,1.211,1.211,0,0,0,.79-.841c.077-1.7.071-3.411.005-5.114a1.145,1.145,0,0,0-.672-.862,16.3,16.3,0,0,0-2.418-.041c0,2.177,0,4.2,0,6.225a6.584,6.584,0,0,0,.08.673" transform="translate(-54.062 -209.016)" fill="#4b47f1"/>
        <path id="Path_26183" data-name="Path 26183" d="M229.338,11.736c-.05,4.429-.784,8.7-3.22,12.48a17.671,17.671,0,0,1-3.1,3.675c-3.374,2.974-7.369,2.9-10.769-.043a17.151,17.151,0,0,1-5.2-8.566,27.539,27.539,0,0,1-.822-10.928A8.719,8.719,0,0,1,213.641.407,20.116,20.116,0,0,1,221.62.393a8.818,8.818,0,0,1,7.585,8.539c.074.932.09,1.869.132,2.8m-2.8-.541c-.067-.89-.105-1.586-.175-2.279a5.9,5.9,0,0,0-4.939-5.68,16.694,16.694,0,0,0-7.111-.1c-3.243.627-4.916,2.322-5.241,5.582a34.839,34.839,0,0,0,.023,6.365,16.5,16.5,0,0,0,3.686,9.3c3.149,3.819,6.639,3.818,9.785.011a17.988,17.988,0,0,0,3.777-9.582c.065-.532-.2-.692-.622-.908a31.248,31.248,0,0,1-3.776-2.127,1.308,1.308,0,0,0-1.742-.055,14.422,14.422,0,0,1-7.029,2.2,1.311,1.311,0,0,1-1.49-1.21,1.318,1.318,0,0,1,1.15-1.536,8.321,8.321,0,0,1,.862-.111,11.623,11.623,0,0,0,6.018-2.434c1.4-1.148,1.675-1.161,2.971.109a10.814,10.814,0,0,0,3.854,2.449" transform="translate(-179.385 0)" fill="#4b47f1"/>
        <path id="Path_26184" data-name="Path 26184" d="M591.764,235.46c1.517,0,3.034,0,4.55,0,1.174,0,1.814.507,1.807,1.4s-.648,1.4-1.831,1.406c-2.872.012-5.744,0-8.617.01-.316,0-.752-.032-.919.148-.27.292-.576.817-.477,1.115a1.419,1.419,0,0,0,1,.8c1.152.105,2.32.029,3.482.048a3.775,3.775,0,0,1,3.686,2.022,3.494,3.494,0,0,1-2.932,5.022c-.578.047-1.161.025-1.742.029-.785,0-1.2.362-1.189,1.18a3.1,3.1,0,0,1-.089.86,1.281,1.281,0,0,1-1.521,1.029,1.305,1.305,0,0,1-1.2-1.3,3.876,3.876,0,0,1,4-4.58,5.477,5.477,0,0,0,1.251-.038,3.645,3.645,0,0,0,.939-.623c-.3-.262-.595-.727-.917-.75-1.252-.091-2.515-.061-3.773-.041a3.593,3.593,0,0,1-2.907-1.28,3.733,3.733,0,0,1-.648-4.153,3.54,3.54,0,0,1,3.394-2.3c1.549-.017,3.1,0,4.647,0Z" transform="translate(-507.971 -205.028)" fill="#4b47f1"/>
        <path id="Path_26185" data-name="Path 26185" d="M2.972,526.484c-.514,0-1.029.019-1.542,0A1.346,1.346,0,0,1,0,525.113a1.292,1.292,0,0,1,1.274-1.419,25.527,25.527,0,0,1,3.274,0,1.4,1.4,0,0,1-.13,2.787c-.481.02-.964,0-1.446.006" transform="translate(0 -455.965)" fill="#4b47f1"/>
      </g>
    </g>
    <g id="Group_60256" data-name="Group 60256" transform="translate(1405.021 362.091)">
      <g id="Group_60255" data-name="Group 60255" transform="translate(0 0)" clip-path="url(#clip-path-2)">
        <path id="Path_26189" data-name="Path 26189" d="M67.349,33.943c1.3,0,2.538,0,3.773,0,.575,0,1.152-.025,1.725.016a4.365,4.365,0,0,1,4.423,3.9Q79.4,48.288,81.5,58.725q2.656,13.053,5.321,26.1a6.262,6.262,0,0,1,.127.8,1.28,1.28,0,0,1-2.524.4c-.378-1.679-.72-3.367-1.064-5.054Q79.8,63.446,76.251,45.9c-.175-.872-.489-1.161-1.4-1.16q-31.423.041-62.847.007c-.715,0-1.049.141-1.208.928Q6.758,65.664,2.658,85.636c-.214,1.049-.838,1.572-1.642,1.389a1.354,1.354,0,0,1-.978-1.689q1.643-8.082,3.3-16.161Q6.475,53.77,9.6,38.362a5.384,5.384,0,0,1,1.767-3.468,5.042,5.042,0,0,1,3.243-.95c1.96,0,3.921,0,6,0-.126-1.694-.238-3.281-.363-4.866-.079-.995-.194-1.987-.262-2.983-.076-1.109.42-1.649,1.521-1.656,2.058-.013,4.117-.01,6.176,0,1.284,0,1.746.5,1.648,1.795-.177,2.322-.372,4.643-.555,6.965-.016.2,0,.412,0,.7.351.016.673.044,1,.044q16.438,0,32.877,0a6.031,6.031,0,0,1,.635,0c1,.107,1.429-.373,1.664-1.334,1.2-4.9,2.456-9.784,3.69-14.674.283-1.123.271-1.137-.848-1.137-6.3,0-12.594.011-18.89-.014a1.014,1.014,0,0,0-1.186.892c-1.073,4.183-2.186,8.357-3.285,12.534-.366,1.392-.654,1.623-2.066,1.624-3.33,0-6.66.006-9.99,0-1.017,0-1.576-.515-1.553-1.362.021-.8.567-1.279,1.543-1.283,2.876-.012,5.752-.037,8.628.016.793.014,1.085-.249,1.273-1,.952-3.778,1.962-7.541,2.954-11.309.528-2.008,1.408-2.689,3.491-2.689q9.718,0,19.435,0c1.9,0,3.083.909,3.274,2.562a4.625,4.625,0,0,1-.2,1.6q-1.827,7.295-3.684,14.582c-.072.285-.11.58-.186.989M11.527,42.1H75.421c-.22-1.142-.418-2.2-.63-3.257-.4-1.988-.749-2.274-2.795-2.274H18.708q-2.224,0-4.448,0a1.628,1.628,0,0,0-1.773,1.13c-.378,1.419-.633,2.871-.959,4.4M22.733,27.112c.164,2.153.306,4.219.5,6.281.017.178.374.442.594.464,2.117.219,2.118.207,2.373-1.862.011-.09.034-.178.041-.268.113-1.52.224-3.04.34-4.615Z" transform="translate(0 -12.244)" fill="#4b47f1"/>
        <path id="Path_26190" data-name="Path 26190" d="M341.479,280.989a3.616,3.616,0,0,1-3-4.552,3.36,3.36,0,0,1,3.467-2.629c3-.036,5.994-.015,8.991-.016q2.951,0,5.9,0c2.465,0,3.8,1.007,4.092,3.073.287,2.021-.762,3.449-3.134,4.166.132,1.294.258,2.609.4,3.922q1.07,9.691,2.148,19.382c.18,1.623.384,3.243.527,4.869.087.99-.357,1.572-1.135,1.647s-1.334-.415-1.449-1.4c-.412-3.513-.815-7.028-1.167-10.548-.217-2.172-.172-2.175-2.3-2.174-3.784,0-7.568.026-11.352-.018-.844-.01-1.064.295-1.142,1.078-.39,3.911-.835,7.816-1.271,11.722a1.33,1.33,0,1,1-2.629-.265q.842-7.617,1.706-15.232.675-6.039,1.337-12.08a9.28,9.28,0,0,0,0-.952m15.082,13.1c-.063-.634-.115-1.2-.176-1.761-.383-3.512-.776-7.022-1.144-10.535-.065-.622-.289-.867-.961-.86-3.083.036-6.166.025-9.25.007-.586,0-.838.145-.9.8-.242,2.524-.566,5.04-.845,7.56-.175,1.577-.325,3.156-.492,4.793Zm-6.888-15.729q3.72,0,7.439,0c.684,0,1.238-.2,1.24-.988s-.538-.994-1.231-.994q-7.446.007-14.892,0c-.686,0-1.221.184-1.22.993s.544.99,1.225.99q3.719,0,7.438,0" transform="translate(-291.736 -236.054)" fill="#4b47f1"/>
        <path id="Path_26191" data-name="Path 26191" d="M116.282,280.944c-1.808-.413-2.945-1.393-3.13-3.186a3.462,3.462,0,0,1,3.709-4.007c3.3-.03,6.6-.007,9.9-.006,1.816,0,3.634-.043,5.449.015a3.494,3.494,0,0,1,3.386,4.566,3.546,3.546,0,0,1-3.052,2.618c.131,1.291.252,2.574.394,3.855q.975,8.835,1.96,17.669c.243,2.193.5,4.385.719,6.582.106,1.077-.306,1.668-1.106,1.757s-1.343-.409-1.468-1.471c-.42-3.573-.8-7.15-1.2-10.725-.067-.6-.15-1.194-.234-1.863-.328-.021-.623-.055-.917-.056-4.178,0-8.356.013-12.533-.021-.74-.006-.992.239-1.066.957-.4,3.94-.849,7.875-1.283,11.812a1.344,1.344,0,0,1-1.475,1.365,1.367,1.367,0,0,1-1.141-1.667q1.5-13.385,2.993-26.771c.05-.447.063-.9.1-1.424m15.041,13.111c-.076-.715-.138-1.31-.2-1.905q-.568-5.221-1.135-10.442c-.054-.5-.179-.824-.812-.818-3.173.028-6.347.017-9.52.009-.462,0-.709.126-.764.649-.34,3.242-.714,6.48-1.069,9.72-.1.912-.175,1.827-.265,2.787Zm-6.859-17.719h-7.534c-.649,0-1.147.195-1.162.955-.016.81.5,1.023,1.19,1.024.422,0,.845-.013,1.267-.013q6.9.005,13.791.009c.67,0,1.125-.312,1.087-1.04-.041-.8-.62-.938-1.285-.937q-3.676.006-7.353,0" transform="translate(-97.536 -236.006)" fill="#4b47f1"/>
        <path id="Path_26192" data-name="Path 26192" d="M179.878,7.982a12.5,12.5,0,0,1,.186-1.972,3.034,3.034,0,0,1,2.978-2.331c.926.007,1.321-.185,1.535-1.232.45-2.193,2.365-2.689,4.132-2.35a1.132,1.132,0,0,1,.868,1.317,1.115,1.115,0,0,1-1.143,1.171c-1.041-.033-1.358.394-1.517,1.384-.221,1.38-1.513,2.212-3.181,2.312-1.154.069-1.2.121-1.214,1.275-.006.6.008,1.209-.026,1.811a1.28,1.28,0,0,1-2.558-.023c-.018-.452,0-.906,0-1.359l-.057,0" transform="translate(-155.088 0)" fill="#4b47f1"/>
      </g>
    </g>
    <g id="Group_60258" data-name="Group 60258" transform="translate(1353.748 561.436)">
      <g id="Group_60257" data-name="Group 60257" clip-path="url(#clip-path-3)">
        <path id="Path_26199" data-name="Path 26199" d="M94.752,54.779l-2.681,1.259c-.288-.587-.608-1.124-.823-1.7-1.413-3.791-2.832-7.58-4.183-11.393a3.818,3.818,0,0,0-1.829-2.3c-.947-.5-1.856-1.075-2.943-1.71v1.256c0,2.123-.012,4.247.005,6.369.006.759-.043,1.473-.785,1.9-.8.464-1.436.028-2.1-.373q-2.97-1.783-5.973-3.511c-.892-.512-1.559-.383-1.885.276s.011,1.144.906,1.7a47.9,47.9,0,0,1,4.394,2.955,6.934,6.934,0,0,1,1.754,2.216,67.854,67.854,0,0,0,6.609,10.3,5,5,0,0,1,.271.436l-2.364,1.881c-1.175-1.64-2.361-3.223-3.467-4.86-.9-1.336-1.685-2.755-2.582-4.1a1.45,1.45,0,0,0-1-.6q-28.04-.043-56.079-.041a1.184,1.184,0,0,0-1.1.689q-2.8,4.179-5.648,8.33c-.176.259-.393.49-.656.814L10.27,62.74c1.072-1.485,2.18-2.868,3.12-4.357q2.3-3.65,4.421-7.419c1.481-2.645,3.822-4.25,6.391-5.624.307-.164.634-.291.932-.47a1.422,1.422,0,0,0,.588-1.952,1.332,1.332,0,0,0-1.892-.487c-2.26,1.274-4.492,2.6-6.734,3.9-.748.436-1.425,1.162-2.416.631s-.821-1.473-.822-2.351c0-2.755,0-5.51,0-8.453A49.431,49.431,0,0,0,9.3,39.039a4.3,4.3,0,0,0-1.119,2.225,97.074,97.074,0,0,1-5.46,14.159L0,54.179c.979-2.314,2.009-4.546,2.87-6.842.91-2.424,1.7-4.894,2.463-7.37a7,7,0,0,1,3.2-4.186c1.552-.918,3.063-1.906,4.614-2.825a1.391,1.391,0,0,0,.725-1.384q-.031-13.214-.013-26.429c0-3.351,1.8-5.142,5.179-5.142h58.17c3.242,0,5.083,1.824,5.084,5.048q.005,14.593-.016,29.186a1.522,1.522,0,0,0,.811,1.533c1.342.776,2.638,1.629,3.971,2.42a5.847,5.847,0,0,1,2.781,3.475,83.154,83.154,0,0,0,4.728,12.6c.064.137.1.286.184.516M79.252,44.3V43.153q0-18.962,0-37.923c0-1.746-.436-2.187-2.184-2.187H19.006c-1.632,0-2.107.465-2.107,2.072q0,18.391,0,36.782c0,.263.036.527.058.833,1.911-1.05,3.709-2.109,5.568-3.045A4.381,4.381,0,0,1,28.939,43.5a4.3,4.3,0,0,1-2.78,4.248,13.616,13.616,0,0,0-5.165,3.91H74.741c-.436-.358-.7-.619-1.012-.821-.713-.468-1.44-.917-2.172-1.355-.325-.194-.683-.332-1.013-.519a4.12,4.12,0,0,1,3.724-7.347c1.645.8,3.224,1.735,4.984,2.692" transform="translate(0 0)" fill="#4b47f1"/>
        <path id="Path_26200" data-name="Path 26200" d="M247.909,87.627c0-1.647.025-3.3-.01-4.942a1.849,1.849,0,0,1,1.133-1.889q5.024-2.473,10.019-5a2.08,2.08,0,0,1,2.064,0q4.948,2.514,9.927,4.965a1.923,1.923,0,0,1,1.211,1.938q-.044,4.942,0,9.885a1.927,1.927,0,0,1-1.215,1.937q-4.983,2.447-9.93,4.965a2.089,2.089,0,0,1-2.066-.007q-4.994-2.535-10.021-5.007a1.8,1.8,0,0,1-1.118-1.8c.025-1.679.007-3.358.007-5.038m10.644,8.181c0-2.385.011-4.565-.016-6.745a.883.883,0,0,0-.367-.662c-2.349-1.209-4.717-2.383-7.215-3.634,0,2.413-.005,4.675.012,6.938a.6.6,0,0,0,.272.441c2.385,1.208,4.78,2.4,7.314,3.661M269.2,84.78c-2.52,1.257-4.915,2.444-7.3,3.656a.7.7,0,0,0-.291.523c-.02,2.235-.013,4.469-.013,6.855,2.515-1.256,4.909-2.445,7.291-3.657a.7.7,0,0,0,.3-.521c.02-2.234.013-4.468.013-6.856M252.848,82.3c2.012,1.011,3.877,1.849,5.637,2.869a2.819,2.819,0,0,0,3.2,0c1.759-1.022,3.626-1.858,5.631-2.864-1.92-.962-3.716-1.733-5.375-2.734a3.187,3.187,0,0,0-3.7,0c-1.661,1-3.458,1.766-5.384,2.726" transform="translate(-212.76 -64.814)" fill="#4b47f1"/>
        <path id="Path_26201" data-name="Path 26201" d="M229.936,198.456l1.926-2.049a5.04,5.04,0,0,1,1.574,6.18,8.523,8.523,0,0,1-3.582,3.562,25.049,25.049,0,0,1-9.52,3.019,41.529,41.529,0,0,1-16.753-.932,16.706,16.706,0,0,1-7.059-3.534c-2.758-2.515-2.826-5.988-.086-8.348l1.97,2.084c-1.379,2.128-1.2,3.164.86,4.6a18.952,18.952,0,0,0,7.677,2.845,36.8,36.8,0,0,0,18.465-1.064,15.306,15.306,0,0,0,3.717-1.844c1.548-1.056,2.646-2.2.811-4.515" transform="translate(-166.859 -168.521)" fill="#4b47f1"/>
        <rect id="Rectangle_76475" data-name="Rectangle 76475" width="2.946" height="2.93" transform="translate(67.142 6.132)" fill="#4b47f1"/>
        <rect id="Rectangle_76476" data-name="Rectangle 76476" width="2.932" height="2.925" transform="translate(73.216 6.157)" fill="#4b47f1"/>
      </g>
    </g>
    <g id="Group_60262" data-name="Group 60262" transform="translate(1056.627 365.815)">
      <g id="Group_60261" data-name="Group 60261" transform="translate(0 0.001)" clip-path="url(#clip-path-4)">
        <path id="Path_26212" data-name="Path 26212" d="M13.321,40.776c-.645.1-.816.479-.938.959Q10.983,47.27,9.552,52.8A2.7,2.7,0,0,1,6.87,54.968a2.768,2.768,0,0,1-2.722-2.146A2.962,2.962,0,0,1,4.176,51.6c.223-.989.514-1.963.773-2.944.052-.195.083-.395.124-.593-1.668-.308-1.667-.308-1.667-2.024q0-20.656,0-41.312c0-1.242.144-1.386,1.393-1.386H72.574c1.04.009,1.27.233,1.27,1.252q0,5.233,0,10.467,0,15.665,0,31.33c0,1.351-.128,1.481-1.457,1.481H29.7c-.015.323-.037.589-.037.855q0,10.467,0,20.933A3.458,3.458,0,0,1,27.6,73.18a3.4,3.4,0,0,1-4.815-3.163c-.021-4.228-.006-8.456-.007-12.685,0-.208.011-.417-.006-.624a1.361,1.361,0,0,0-1.3-1.288A1.28,1.28,0,0,0,20.2,56.634a6.556,6.556,0,0,0-.017.762c0,4.159.019,8.318-.01,12.477a3.4,3.4,0,0,1-4.584,3.3,3.363,3.363,0,0,1-2.261-3.379q-.012-8.145,0-16.289,0-6,0-11.992v-.733m58.9-35.766H5.079V46.336l.212.107a2.515,2.515,0,0,0,.415-.651c.661-2.569,1.279-5.149,1.964-7.711a1.76,1.76,0,0,1,.762-.969c1.665-.944,3.394-1.776,5.051-2.734a7.561,7.561,0,0,1,4.641-1.029,1.06,1.06,0,0,1,1.077.774c.249.767.543,1.52.82,2.279.428,1.176.858,2.351,1.343,3.679.146-.369.234-.574.31-.784.613-1.691,1.238-3.379,1.827-5.078a1.107,1.107,0,0,1,1.227-.865c.76.034,1.523,0,2.285,0a2.842,2.842,0,0,1,2.13.981c1.329,1.376,2.7,2.713,4.062,4.076,1.744-1.23,3.441-2.429,5.139-3.624.766-.539,1.1-.474,1.651.3.169.237.346.469.531.719.25-.168.441-.293.63-.423l8.313-5.759c.133-.092.263-.188.4-.274a.777.777,0,0,1,1.162.147.759.759,0,0,1-.244,1.093c-.141.118-.3.217-.45.324q-4.161,2.933-8.322,5.867c-.2.141-.388.3-.6.455.094.148.15.247.216.339.734,1.022.7,1.222-.322,1.93q-3.958,2.739-7.918,5.476c-.744.513-.975.487-1.615-.148-.661-.656-1.319-1.316-2.067-2.063v3.451H72.221ZM38.894,36.376c-1.71,1.2-3.353,2.349-5,3.5-.835.582-1.036.56-1.773-.175C31,38.571,29.8,37.5,28.763,36.3a3.538,3.538,0,0,0-3.329-1.363c-.461.054-.687.166-.84.6-.793,2.263-1.616,4.516-2.427,6.773-.159.442-.3.91-.889.916s-.738-.445-.9-.9c-.817-2.279-1.636-4.558-2.478-6.828-.081-.217-.337-.539-.494-.529a6.379,6.379,0,0,0-2.274.339c-1.852.879-3.622,1.929-5.443,2.877a1.368,1.368,0,0,0-.755.978C8.3,41.7,7.648,44.222,7,46.747c-.423,1.653-.859,3.3-1.261,4.962-.257,1.061.275,1.76,1.214,1.647a1.131,1.131,0,0,0,1.011-.98Q9.4,46.71,10.874,41.051c.1-.373.175-.88.44-1.054A17.774,17.774,0,0,1,13.928,38.6c.456-.2.9.182.965.706a6.582,6.582,0,0,1,.017.761q0,14.658,0,29.316a4.449,4.449,0,0,0,.1,1.1A1.715,1.715,0,0,0,16.385,71.8a1.585,1.585,0,0,0,1.8-.73,3.016,3.016,0,0,0,.387-1.43c.038-2.31.016-4.62.017-6.93,0-2.056-.023-4.113.018-6.168A2.658,2.658,0,0,1,20.432,54a2.764,2.764,0,0,1,3.075.618A3.133,3.133,0,0,1,24.4,57.08q-.013,6.133,0,12.267c0,.277,0,.556.022.831a1.821,1.821,0,0,0,1.533,1.64,1.767,1.767,0,0,0,1.956-1.195,3.525,3.525,0,0,0,.132-1.088q.011-14.138,0-28.276c0-.467-.049-.966.482-1.19s.863.116,1.2.451c1,.98,2.021,1.948,3.054,2.942l7.505-5.152-1.394-1.933" transform="translate(-2.971 -2.911)" fill="#4b47f1" stroke="#4b47f1" stroke-width="1"/>
        <path id="Path_26213" data-name="Path 26213" d="M246.277,463.287a13.049,13.049,0,0,1,8.763-2.82c5.763.212,10.948,5.233,11.239,10.858.047.911-.181,1.166-1.094,1.166q-18.986,0-37.973,0c-.9,0-1.207-.37-1.084-1.258a12.333,12.333,0,0,1,19.848-8.157c.09.069.186.132.3.213m2.5,7.66c.121-4.265-5.224-8.868-10.355-8.895a10.543,10.543,0,0,0-10.521,8.895Zm15.939.01c-.118-3.46-3.7-7.411-7.693-8.536-3.163-.892-8.2.254-9.473,2.178a12.251,12.251,0,0,1,2.956,6.358Z" transform="translate(-197.256 -401.704)" fill="#4b47f1" stroke="#4b47f1" stroke-width="1"/>
        <path id="Path_26214" data-name="Path 26214" d="M397.231,364.688a6.256,6.256,0,0,1,6.449-6.271,6.335,6.335,0,0,1-.2,12.668,6.248,6.248,0,0,1-6.253-6.4m6.348-4.653a4.728,4.728,0,1,0,4.7,4.723,4.776,4.776,0,0,0-4.7-4.723" transform="translate(-346.552 -312.69)" fill="#4b47f1" stroke="#4b47f1" stroke-width="1"/>
        <path id="Path_26215" data-name="Path 26215" d="M278.739,371.086a6.335,6.335,0,1,1,.275-12.667,6.335,6.335,0,0,1-.275,12.667m.091-11.049a4.728,4.728,0,1,0,.014,9.456,4.728,4.728,0,0,0-.014-9.456" transform="translate(-237.728 -312.692)" fill="#4b47f1" stroke="#4b47f1" stroke-width="1"/>
        <path id="Path_26216" data-name="Path 26216" d="M279.069,159.337H264.52c-.995,0-1.45-.291-1.427-.906.022-.586.451-.844,1.417-.844h29.1c1.019,0,1.392.22,1.415.823.024.635-.415.927-1.405.928h-14.55" transform="translate(-229.527 -137.481)" fill="#4b47f1" stroke="#4b47f1" stroke-width="1"/>
        <path id="Path_26217" data-name="Path 26217" d="M103.82,141.34a6.12,6.12,0,1,1,6.058-6,6.039,6.039,0,0,1-6.058,6m-4.352-6.131a4.59,4.59,0,0,0,4.373,4.63,4.516,4.516,0,0,0,.012-9.031,4.362,4.362,0,0,0-4.385,4.4" transform="translate(-85.356 -112.633)" fill="#4b47f1" stroke="#4b47f1" stroke-width="1"/>
        <path id="Path_26218" data-name="Path 26218" d="M279.14,79.222h14.547c.982,0,1.363.23,1.339.8s-.448.833-1.355.833H264.439c-.973,0-1.367-.24-1.342-.806s.452-.828,1.357-.829H279.14" transform="translate(-229.531 -69.115)" fill="#4b47f1" stroke="#4b47f1" stroke-width="1"/>
      </g>
    </g>
    <circle id="Ellipse_3655" data-name="Ellipse 3655" cx="98" cy="98" r="98" transform="translate(1174 360)" fill="#ecebff"/>
    <g id="Group_60285" data-name="Group 60285" transform="translate(10.595 -0.851)">
      <path id="Icon_awesome-building" data-name="Icon awesome-building" d="M78.078,85.957H74.5V4.3A4.3,4.3,0,0,0,70.2,0H10.028a4.3,4.3,0,0,0-4.3,4.3V85.957H2.149A2.149,2.149,0,0,0,0,88.106v3.582H80.227V88.106A2.149,2.149,0,0,0,78.078,85.957ZM22.922,13.61a2.149,2.149,0,0,1,2.149-2.149h7.163a2.149,2.149,0,0,1,2.149,2.149v7.163a2.149,2.149,0,0,1-2.149,2.149H25.071a2.149,2.149,0,0,1-2.149-2.149Zm0,17.191a2.149,2.149,0,0,1,2.149-2.149h7.163A2.149,2.149,0,0,1,34.383,30.8v7.163a2.149,2.149,0,0,1-2.149,2.149H25.071a2.149,2.149,0,0,1-2.149-2.149Zm9.312,26.5H25.071a2.149,2.149,0,0,1-2.149-2.149V47.993a2.149,2.149,0,0,1,2.149-2.149h7.163a2.149,2.149,0,0,1,2.149,2.149v7.163A2.149,2.149,0,0,1,32.234,57.3Zm13.61,28.652H34.383V70.915a2.149,2.149,0,0,1,2.149-2.149h7.163a2.149,2.149,0,0,1,2.149,2.149ZM57.3,55.156A2.149,2.149,0,0,1,55.156,57.3H47.993a2.149,2.149,0,0,1-2.149-2.149V47.993a2.149,2.149,0,0,1,2.149-2.149h7.163A2.149,2.149,0,0,1,57.3,47.993Zm0-17.191a2.149,2.149,0,0,1-2.149,2.149H47.993a2.149,2.149,0,0,1-2.149-2.149V30.8a2.149,2.149,0,0,1,2.149-2.149h7.163A2.149,2.149,0,0,1,57.3,30.8Zm0-17.191a2.149,2.149,0,0,1-2.149,2.149H47.993a2.149,2.149,0,0,1-2.149-2.149V13.61a2.149,2.149,0,0,1,2.149-2.149h7.163A2.149,2.149,0,0,1,57.3,13.61Z" transform="translate(1221.292 405.636)" fill="#4b47f1"/>
    </g>
    <g id="Group_60287" data-name="Group 60287" transform="translate(5329.381 10022)">
      <g id="Group_60286" data-name="Group 60286" transform="translate(-3997.762 -9658) rotate(180)">
        <g id="Ellipse_3656" data-name="Ellipse 3656" transform="translate(-0.381 29)" fill="none" stroke="#4b47f1" stroke-width="4">
          <ellipse cx="61.5" cy="61" rx="61.5" ry="61" stroke="none"/>
          <ellipse cx="61.5" cy="61" rx="59.5" ry="59" fill="none"/>
        </g>
        <rect id="Rectangle_76493" data-name="Rectangle 76493" width="7" height="18" transform="translate(55.619 14)" fill="#4b47f1"/>
        <ellipse id="Ellipse_3657" data-name="Ellipse 3657" cx="8" cy="8.5" rx="8" ry="8.5" transform="translate(51.619 0)" fill="#4b47f1"/>
      </g>
    </g>
    <g id="Group_60288" data-name="Group 60288" transform="translate(5493.381 10143.275)">
      <g id="Group_60286-2" data-name="Group 60286" transform="translate(-4121.332 -9659.098) rotate(-101)">
        <g id="Ellipse_3656-2" data-name="Ellipse 3656" transform="translate(-0.381 29)" fill="none" stroke="#4b47f1" stroke-width="4">
          <ellipse cx="61.5" cy="61" rx="61.5" ry="61" stroke="none"/>
          <ellipse cx="61.5" cy="61" rx="59.5" ry="59" fill="none"/>
        </g>
        <rect id="Rectangle_76493-2" data-name="Rectangle 76493" width="7" height="18" transform="translate(55.619 14)" fill="#4b47f1"/>
        <ellipse id="Ellipse_3657-2" data-name="Ellipse 3657" cx="8" cy="8.5" rx="8" ry="8.5" transform="translate(51.619 0)" fill="#4b47f1"/>
      </g>
    </g>
    <g id="Group_60289" data-name="Group 60289" transform="translate(11340.821 4077.646) rotate(-48)">
      <g id="Group_60286-3" data-name="Group 60286" transform="translate(-4120 -9809)">
        <g id="Ellipse_3656-3" data-name="Ellipse 3656" transform="translate(-0.381 29)" fill="none" stroke="#4b47f1" stroke-width="4">
          <ellipse cx="61.5" cy="61" rx="61.5" ry="61" stroke="none"/>
          <ellipse cx="61.5" cy="61" rx="59.5" ry="59" fill="none"/>
        </g>
        <rect id="Rectangle_76493-3" data-name="Rectangle 76493" width="7" height="18" transform="translate(55.619 14)" fill="#4b47f1"/>
        <ellipse id="Ellipse_3657-3" data-name="Ellipse 3657" cx="8" cy="8.5" rx="8" ry="8.5" transform="translate(51.619 0)" fill="#4b47f1"/>
      </g>
    </g>
    <g id="Group_60290" data-name="Group 60290" transform="translate(-2859.062 10334.337) rotate(45)">
      <g id="Group_60286-4" data-name="Group 60286" transform="translate(-4120 -9809)">
        <g id="Ellipse_3656-4" data-name="Ellipse 3656" transform="translate(-0.381 29)" fill="none" stroke="#4b47f1" stroke-width="4">
          <ellipse cx="61.5" cy="61" rx="61.5" ry="61" stroke="none"/>
          <ellipse cx="61.5" cy="61" rx="59.5" ry="59" fill="none"/>
        </g>
        <rect id="Rectangle_76493-4" data-name="Rectangle 76493" width="7" height="18" transform="translate(55.619 14)" fill="#4b47f1"/>
        <ellipse id="Ellipse_3657-4" data-name="Ellipse 3657" cx="8" cy="8.5" rx="8" ry="8.5" transform="translate(51.619 0)" fill="#4b47f1"/>
      </g>
    </g>
    <g id="Group_60291" data-name="Group 60291" transform="translate(-9403.871 1255.139) rotate(108)">
      <g id="Group_60286-5" data-name="Group 60286" transform="translate(-4120 -9809)">
        <g id="Ellipse_3656-5" data-name="Ellipse 3656" transform="translate(-0.381 29)" fill="none" stroke="#4b47f1" stroke-width="4">
          <ellipse cx="61.5" cy="61" rx="61.5" ry="61" stroke="none"/>
          <ellipse cx="61.5" cy="61" rx="59.5" ry="59" fill="none"/>
        </g>
        <rect id="Rectangle_76493-5" data-name="Rectangle 76493" width="7" height="18" transform="translate(55.619 14)" fill="#4b47f1"/>
        <ellipse id="Ellipse_3657-5" data-name="Ellipse 3657" cx="8" cy="8.5" rx="8" ry="8.5" transform="translate(51.619 0)" fill="#4b47f1"/>
      </g>
    </g>
    <g id="Group_61091" data-name="Group 61091" transform="translate(1100 557)">
      <g id="Group_61090" data-name="Group 61090" transform="translate(0 0)" clip-path="url(#clip-path-5)">
        <path id="Path_36173" data-name="Path 36173" d="M42.053,43.132a1.728,1.728,0,0,1-1.877-1.956c.02-.654.016-1.309.011-2l-.029-.088c-.668,0-1.3,0-1.935,0-1.535-.009-2.108-.572-2.111-2.077,0-.4,0-.81,0-1.215v-.078c0-.673,0-1.347-.007-2.02a1.9,1.9,0,0,1,.5-1.441,1.847,1.847,0,0,1,1.407-.489c.423.009.849.007,1.274,0,.3,0,.6,0,.893,0,0-.306,0-.6,0-.9,0-.424.006-.848,0-1.272a1.861,1.861,0,0,1,.48-1.4,1.726,1.726,0,0,1,1.392-.492c1.178.011,2.388.01,3.6,0a1.7,1.7,0,0,1,1.835,1.814l.007.445c.009.6.017,1.2,0,1.809.408-.016.816-.01,1.183-.005h.111c.275,0,.549.007.823,0a1.784,1.784,0,0,1,1.434.488,1.863,1.863,0,0,1,.5,1.417c-.02,1.027-.02,2.149,0,3.534a1.836,1.836,0,0,1-.486,1.369,1.857,1.857,0,0,1-1.375.513c-.527,0-1.053,0-1.608,0h-.582v.043c0,.7,0,1.347,0,1.994-.01,1.379-.593,1.972-1.947,1.984-.453,0-.907,0-1.364,0-.678,0-1.351-.007-2.026.012Zm-.671-5.242.005,1.264c0,.72.01,1.39-.011,2.058a.782.782,0,0,0,.139.573.765.765,0,0,0,.538.146h.061c.685-.018,1.374-.014,2.06-.012.452,0,.9,0,1.348,0,.666-.006.752-.036.758-.792,0-.645,0-1.289,0-1.966V37.9h1.785c.549,0,1.076,0,1.6,0a.769.769,0,0,0,.522-.153h0a.7.7,0,0,0,.142-.511c-.02-1.4-.02-2.534,0-3.574.008-.394-.1-.506-.141-.543a.7.7,0,0,0-.542-.139c-.3.008-.591,0-.882,0h-.112c-.43-.005-.872-.012-1.307.014a1.059,1.059,0,0,1-.827-.23,1.1,1.1,0,0,1-.242-.862c.029-.628.02-1.273.011-1.9l-.007-.459c0-.459-.172-.629-.617-.629-1.226.009-2.442.01-3.658,0a.559.559,0,0,0-.493.136.743.743,0,0,0-.135.535c.01.437.007.872,0,1.308,0,.411-.007.819,0,1.228a.841.841,0,0,1-.22.66.978.978,0,0,1-.645.2c-.409-.007-.819-.007-1.226,0-.436,0-.873,0-1.31,0-.39-.007-.49.1-.532.139a.784.784,0,0,0-.148.57c.012.681.01,1.363.007,2.045V35.8q0,.6,0,1.207c0,.813.023.875.919.88.63,0,1.261,0,1.925,0Z" transform="translate(-14.43 -11.073)" fill="#4b47f1"/>
        <path id="Path_36174" data-name="Path 36174" d="M61.928,62.005c-.4,0-.768,0-1.14,0l-.773,0h-1.9a1.619,1.619,0,0,1-1.723-1.734l0-3.876A1.607,1.607,0,0,1,58.069,54.7c1.355-.016,2.664-.016,3.894,0A1.667,1.667,0,0,1,63.7,56.433c.011,1.271.007,2.542,0,3.812a1.663,1.663,0,0,1-1.772,1.761m-.683-1.2c.223,0,.446,0,.669,0a.626.626,0,0,0,.45-.129.611.611,0,0,0,.135-.439c.009-1.264.013-2.527,0-3.792a.483.483,0,0,0-.551-.543c-1.22-.013-2.521-.013-3.869,0-.345,0-.486.146-.487.493l0,3.876a.576.576,0,0,0,.12.415.564.564,0,0,0,.4.117h1.9l.773,0h.459" transform="translate(-22.537 -21.858)" fill="#4b47f1"/>
        <path id="Path_36175" data-name="Path 36175" d="M48.445,75.493c-.406-.008-.768-.007-1.124-.005l-2.7,0A1.614,1.614,0,0,1,42.9,73.757V73.1c0-1.045,0-2.089,0-3.134a1.746,1.746,0,0,1,.474-1.292,1.764,1.764,0,0,1,1.3-.488q1.9-.007,3.8,0a1.649,1.649,0,0,1,1.722,1.736q.013,1.9.005,3.808a1.651,1.651,0,0,1-1.754,1.76m-.782-1.206c.252,0,.5,0,.757.005a.625.625,0,0,0,.445-.123A.617.617,0,0,0,49,73.727q.008-1.9-.005-3.793c0-.386-.155-.543-.526-.545h0q-1.9-.007-3.794,0a.628.628,0,0,0-.45.133.607.607,0,0,0-.126.439c.007,1.048,0,2.1,0,3.144v.655a.61.61,0,0,0,.118.414.558.558,0,0,0,.4.116l2.7,0Z" transform="translate(-17.144 -27.251)" fill="#4b47f1"/>
        <path id="Path_36176" data-name="Path 36176" d="M48.352,62.014c-1.343-.022-2.5-.022-3.577,0h0a1.712,1.712,0,0,1-1.887-1.949c.014-.388.011-.777.008-1.166l0-.537,0-.57c0-.413,0-.824,0-1.235a1.816,1.816,0,0,1,.474-1.365,1.763,1.763,0,0,1,1.314-.493c1.131,0,2.255,0,3.38,0h.322a1.712,1.712,0,0,1,1.324.487,1.836,1.836,0,0,1,.5,1.354l0,3.637a1.7,1.7,0,0,1-1.846,1.841M46.44,60.8c.6,0,1.221.005,1.882.016.39,0,.5-.106.532-.14a.73.73,0,0,0,.143-.5l0-3.639a.743.743,0,0,0-.145-.5.52.52,0,0,0-.418-.136l-.376,0q-1.691,0-3.381,0a.632.632,0,0,0-.459.133.729.729,0,0,0-.13.5c.009.421.007.843,0,1.266l0,.562,0,.529c0,.406.007.814-.009,1.22a.772.772,0,0,0,.134.566c.037.037.136.138.542.138.536-.01,1.093-.016,1.677-.016" transform="translate(-17.14 -21.858)" fill="#4b47f1"/>
        <path id="Path_36177" data-name="Path 36177" d="M61.861,75.5h-.046c-1.13-.017-2.313-.019-3.615-.005a1.828,1.828,0,0,1-1.344-.483,1.787,1.787,0,0,1-.473-1.345c.007-.39.005-.78,0-1.171V71.277c0-.434,0-.867,0-1.3a1.75,1.75,0,0,1,.462-1.3,1.693,1.693,0,0,1,1.222-.487c1.171-.016,2.446-.015,3.9,0A1.675,1.675,0,0,1,63.7,70.017q-.008,1.815,0,3.633A1.705,1.705,0,0,1,61.866,75.5Zm-.032-1.2h.029c.358,0,.463-.105.5-.139s.145-.143.143-.506q0-1.822,0-3.641c0-.505-.217-.612-.548-.616-1.442-.018-2.706-.019-3.867,0a.48.48,0,0,0-.378.123.609.609,0,0,0-.122.441c.007.441.005.881,0,1.324v1.21c0,.4,0,.8,0,1.194-.006.347.092.446.125.478s.123.124.49.128c1.3-.014,2.488-.013,3.629.005" transform="translate(-22.534 -27.25)" fill="#4b47f1"/>
        <path id="Path_36178" data-name="Path 36178" d="M31.2,75.492a1.817,1.817,0,0,1-1.341-.475,1.8,1.8,0,0,1-.5-1.33q0-1.863,0-3.724a1.7,1.7,0,0,1,1.778-1.781c1.27-.007,2.541-.011,3.809,0a1.647,1.647,0,0,1,1.719,1.743q0,.946,0,1.892v.6c0,.433,0,.867,0,1.3a1.645,1.645,0,0,1-1.762,1.776l-.372,0c-1.114-.007-2.228-.014-3.341,0m1.939-6.116q-.994,0-1.989.006c-.406,0-.581.177-.583.586q-.01,1.86,0,3.716a.7.7,0,0,0,.138.477.689.689,0,0,0,.459.13c1.144-.016,2.267-.01,3.389,0l.358,0a.657.657,0,0,0,.443-.125.618.618,0,0,0,.125-.444c0-.435,0-.872,0-1.307v-.594q0-.948,0-1.9c0-.379-.152-.535-.529-.539q-.9-.009-1.8-.008" transform="translate(-11.735 -27.247)" fill="#4b47f1"/>
        <path id="Path_36179" data-name="Path 36179" d="M31.165,62.013a1.679,1.679,0,0,1-1.794-1.8q0-1.9.007-3.8A1.648,1.648,0,0,1,31.129,54.7q1.9-.007,3.8,0h0a1.665,1.665,0,0,1,1.748,1.8c0,1.237,0,2.475,0,3.711a1.766,1.766,0,0,1-.489,1.322,1.905,1.905,0,0,1-1.339.474c-.382-.008-.74-.007-1.1-.005l-.728,0-.561,0c-.414,0-.827,0-1.241,0ZM32.774,55.9q-.819,0-1.64,0c-.487,0-.554.261-.555.514q-.013,1.9-.007,3.8a.65.65,0,0,0,.139.469.642.642,0,0,0,.454.132c.462-.011.885-.009,1.31-.005l.554,0,.725,0c.367,0,.734,0,1.1.005a.747.747,0,0,0,.5-.128.669.669,0,0,0,.13-.46c-.007-1.24,0-2.481,0-3.72,0-.5-.219-.6-.55-.6l-2.155,0" transform="translate(-11.738 -21.861)" fill="#4b47f1"/>
        <path id="Path_36180" data-name="Path 36180" d="M8.381,62.007A1.661,1.661,0,0,1,6.6,60.237V59.6c0-1.059,0-2.117,0-3.176A1.653,1.653,0,0,1,8.336,54.7c1.192-.007,2.386-.005,3.582,0h.225a1.663,1.663,0,0,1,1.772,1.785c0,.478,0,.955,0,1.434l0,1.111c0,.417,0,.836,0,1.257a1.626,1.626,0,0,1-1.73,1.725H10.453ZM10.3,55.894q-.982,0-1.962,0c-.379,0-.537.158-.539.538-.007,1.055-.005,2.11,0,3.165v.633a.616.616,0,0,0,.13.442h0a.618.618,0,0,0,.442.129l3.115,0h.692c.383,0,.526-.145.529-.532,0-.415,0-.833,0-1.249l0-1.111q0-.719,0-1.44a.484.484,0,0,0-.573-.579H10.3" transform="translate(-2.637 -21.859)" fill="#4b47f1"/>
        <path id="Path_36181" data-name="Path 36181" d="M9.353,75.487H8.32A1.629,1.629,0,0,1,6.6,73.742q-.005-1.9,0-3.8a1.673,1.673,0,0,1,1.8-1.757q1.866-.008,3.728,0a1.772,1.772,0,0,1,1.313.5h0a1.824,1.824,0,0,1,.475,1.365c-.009.405-.008.809-.006,1.214v2.486a1.727,1.727,0,0,1-.47,1.272,1.688,1.688,0,0,1-1.241.466Zm.688-6.11q-.817,0-1.634,0c-.5,0-.6.225-.6.558q0,1.9,0,3.8c0,.454.2.546.519.548H12.2a.55.55,0,0,0,.394-.114.629.629,0,0,0,.119-.423V71.265c0-.412,0-.827.006-1.242a.728.728,0,0,0-.135-.5.632.632,0,0,0-.456-.137q-1.044,0-2.086,0" transform="translate(-2.638 -27.248)" fill="#4b47f1"/>
        <path id="Path_36182" data-name="Path 36182" d="M11.4,89.023l-1.614-.007H8.423A1.7,1.7,0,0,1,6.6,87.194V83.478a1.765,1.765,0,0,1,.486-1.29,1.794,1.794,0,0,1,1.294-.481l1.168,0c.878,0,1.756,0,2.633,0a1.625,1.625,0,0,1,1.73,1.728v.984q0,1.4.005,2.809a1.677,1.677,0,0,1-1.759,1.79c-.253,0-.5.005-.757.005M9.788,87.816l1.611.007c.246,0,.492,0,.737-.005.417-.007.58-.171.578-.585q-.006-1.407-.005-2.813v-.985c0-.383-.145-.526-.534-.528-.876,0-1.751,0-2.628,0l-1.168,0a.66.66,0,0,0-.45.133.633.633,0,0,0-.131.437V87.2a.663.663,0,0,0,.14.478.673.673,0,0,0,.484.143Z" transform="translate(-2.637 -32.654)" fill="#4b47f1"/>
        <path id="Path_36183" data-name="Path 36183" d="M45.669,71.767c0-9.444-.028-28.123-.036-33.178l0-1.285V26.137c0-2.85-1.317-4.178-4.146-4.181q-12.156-.007-24.312,0c-2.647,0-3.993,1.346-4,4q-.012,3.868,0,7.737V37.9H9.817q-3.006,0-6.009,0A3.534,3.534,0,0,0,0,41.7Q0,55.635,0,69.566v2.787C0,73.586.319,73.9,1.54,73.9H45.905V71.767ZM2.089,41.992c0-1.6.4-1.992,2.029-1.993h9V71.78h-11v-.008c-.011-.195-.022-.379-.022-.564q0-14.607,0-29.216M32.854,58.425c-2.35,0-4.7-.011-7.049,0a3.5,3.5,0,0,0-3.776,3.809l0,9.539H15.27c-.012-.173-.023-.337-.023-.5q0-22.61,0-45.218a3.592,3.592,0,0,1,.114-1.075c.213-.654.686-.934,1.584-.934q8.712,0,17.422,0l4.721,0c.959,0,1.92,0,2.879.005a1.423,1.423,0,0,1,1.566,1.518c.008.2.007.394.007.591V71.781h-6.75v-.006c-.011-.2-.023-.381-.023-.566q0-2.956,0-5.912V62.34c0-2.518-1.39-3.908-3.916-3.915M28.3,60.513V71.772h-4.16c-.013-.142-.026-.277-.026-.412q0-4.549,0-9.1c0-1.261.517-1.776,1.776-1.776.71,0,1.42.011,2.13.022Zm2.178.024c.254,0,.507-.007.758-.012a22.873,22.873,0,0,1,2.394.039,1.069,1.069,0,0,1,.994,1.039c.035,2.564.03,5.183.025,7.716l0,2.451H30.477Z" transform="translate(0 -8.774)" fill="#4b47f1"/>
        <path id="Path_36184" data-name="Path 36184" d="M116.994,49.962l-.194-1.114c-.429-2.473-.872-5.03-1.373-7.534a4.539,4.539,0,0,0-2.891-3.346L101.4,33.3a4.893,4.893,0,0,1-1.272-2.382.839.839,0,0,1,.176-.213,20.306,20.306,0,0,0,4.458-8.138,2.713,2.713,0,0,1,.7-1.049c1.035-.976,1.775-2.58.952-3.8a3.146,3.146,0,0,1-.244-2.776l.065-.294a3.779,3.779,0,0,0,.065-.693l0-.133A13.862,13.862,0,0,0,96.277.346c-3.828-1.007-7.043.209-8.824,3.334a.694.694,0,0,1-.438.214,4.738,4.738,0,0,0-4.8,4.057,23.6,23.6,0,0,0-.263,7.737,1.659,1.659,0,0,1-.228,1.041,3.484,3.484,0,0,0,.5,4.817,2.434,2.434,0,0,1,.653.961,20.453,20.453,0,0,0,4.491,8.216.552.552,0,0,1,.167.244,3.832,3.832,0,0,1-1.611,2.481q-1.267.528-2.536,1.049c-2.645,1.092-5.381,2.221-8.038,3.411a5.562,5.562,0,0,0-2.481,2.024,15.5,15.5,0,0,0-1.654,6.12l-.08.622a1.085,1.085,0,0,0,.766.966,1.224,1.224,0,0,0,1-.588,1.675,1.675,0,0,0,.187-.708,2.566,2.566,0,0,1,.043-.3L73.364,45c.251-1.116.51-2.27.793-3.4a2.545,2.545,0,0,1,1.519-1.757Q77.76,38.911,79.853,38c.512-.222,1.03-.43,1.584-.655l.4-.16c0,.181,0,.358-.007.533-.01.725-.019,1.409.027,2.093.038.556-.035.8-.523,1.071a3.245,3.245,0,0,0-1.42,3.878,3.322,3.322,0,0,0,3.322,2.315A3.36,3.36,0,0,0,86.4,44.529a3.147,3.147,0,0,0-1.729-3.761c-.911-.322-.961-.826-.973-1.766-.006-.454.014-.908.035-1.361.011-.231.021-.463.028-.694A.794.794,0,0,1,84.4,36.1a19.606,19.606,0,0,0,2.359-.935.6.6,0,0,1,.846.174c1.417,1.462,2.877,2.928,4.29,4.345l.993,1c.371.373.685.659,1.057.659h.007c.373,0,.678-.291,1.037-.666l.973-1.012c1.371-1.427,2.742-2.853,4.1-4.295.319-.339.482-.381.831-.211.4.193.816.351,1.219.5a13.452,13.452,0,0,1,1.244.519.986.986,0,0,1,.474.584,26.238,26.238,0,0,1-.108,3.29.819.819,0,0,1-.426.292,5.2,5.2,0,0,0-4.344,3.8c-.271.911-.459,1.856-.641,2.77l-.055.279c-.209,1.045-.306,1.606-.032,1.981.256.351.717.4,1.556.5.174.02.366.041.578.068.367.045,1.049-.217,1.15-.6a4.2,4.2,0,0,0,.005-1.593l-.025-.14-.111-.075a2.186,2.186,0,0,0-1.114-.038.479.479,0,0,0-.1.04q.051-.227.1-.454a24.235,24.235,0,0,1,.679-2.571,3.082,3.082,0,0,1,3.142-2.03,2.836,2.836,0,0,1,2.655,2.359,17.2,17.2,0,0,1,.073,3c-.008.235-.016.471-.022.706-.014-.017-.029-.034-.045-.051a1.349,1.349,0,0,0-.821-.449,1.088,1.088,0,0,0-.8.523,1.535,1.535,0,0,0-.17,1.479,1.571,1.571,0,0,0,1.309.778c.282.041.563.085.842.135a1.221,1.221,0,0,0,.989-.172,1.2,1.2,0,0,0,.424-.892c.032-.346.067-.693.1-1.039.092-.9.186-1.835.213-2.76a5.226,5.226,0,0,0-2.973-5.13,2.146,2.146,0,0,1-.234-.175c.049-.949.127-1.9.208-2.907l.043-.526q.7.309,1.391.618c1.362.608,2.648,1.182,3.992,1.7a3.75,3.75,0,0,1,2.559,3.116q.454,2.649.9,5.3l.379,2.26c.011.062.019.125.027.191.051.389.144,1.1.934,1.1.034,0,.07,0,.107,0a.925.925,0,0,0,.7-.331,1.483,1.483,0,0,0,.136-1.151m-12.74-35.22c-.029.208-.058.414-.083.621-.138-.218-.28-.434-.421-.65a19.03,19.03,0,0,1-1.168-1.947A6.708,6.708,0,0,0,96.855,8.7c-.145-.011-.294-.017-.445-.017a10.112,10.112,0,0,0-2.855.493A2.878,2.878,0,0,1,91.363,9.1a6.968,6.968,0,0,0-2.317-.653,4.214,4.214,0,0,0-3.1,1.1A5.771,5.771,0,0,0,84.087,13.6c-.038.833-.05,1.094-.257,1.347A19.936,19.936,0,0,1,84,8.757c.464-2.271,1.351-2.973,3.635-2.866a1.223,1.223,0,0,0,1.283-.767c1.365-2.74,3.585-3.741,6.594-2.982a11.992,11.992,0,0,1,8.88,10.811,9.7,9.7,0,0,1-.141,1.788M86,13.778a3.806,3.806,0,0,1,.332-1.466,3.073,3.073,0,0,1,1.624-1.838,2.227,2.227,0,0,1,.809-.148,3.409,3.409,0,0,1,1.465.376,5.132,5.132,0,0,0,4.37.13,4.827,4.827,0,0,1,6.008,2.375,11.606,11.606,0,0,0,3.684,4.659,1.04,1.04,0,0,1,.478.789,1.9,1.9,0,0,1-.614,1.455,5.172,5.172,0,0,0-1.2,1.85c-.976,2.754-2.023,5.4-4.082,7.453a7.253,7.253,0,0,1-5.356,2.206,7.143,7.143,0,0,1-5.329-2.836,19.089,19.089,0,0,1-3.435-6.769,3.623,3.623,0,0,0-1.276-1.983,1.4,1.4,0,0,1-.6-1.213,1.444,1.444,0,0,1,.768-1.159A4.124,4.124,0,0,0,86,13.778m3.151,18.451c4.457,1.815,5.06,1.818,9.385-.022l.056.14a9.786,9.786,0,0,1,.38,1.062.549.549,0,0,1-.076.385c-1.321,1.407-2.658,2.8-4.025,4.225l-.941.98-4.055-4.073c-.038-.038-.074-.08-.111-.121s-.079-.089-.122-.133c-1.09-1.119-1.151-1.182-.492-2.443m-5.94,10.029a1.458,1.458,0,0,1,1,.507,1.425,1.425,0,0,1,.369,1.033,1.532,1.532,0,0,1-1.552,1.372,1.491,1.491,0,0,1-1.009-.529,1.411,1.411,0,0,1-.363-1.015,1.494,1.494,0,0,1,1.477-1.369l.079,0" transform="translate(-28.43 0)" fill="#4b47f1"/>
      </g>
    </g>
  </g>
</svg>
